<svg width="208" height="49" viewBox="0 0 208 49" fill="none" xmlns="http://www.w3.org/2000/svg">
<path d="M42.5175 6.5252C39.9045 3.6677 36.42 2.0957 32.7045 2.0957C29.493 2.0957 26.4525 3.2717 24 5.4362C21.5475 3.2717 18.507 2.0957 15.2955 2.0957C11.58 2.0957 8.0955 3.6677 5.4825 6.5252C0.1725 12.3302 0.1725 21.7742 5.4825 27.5792L22.8915 46.6097C23.1765 46.9187 23.5785 47.0957 24 47.0957C24.4215 47.0957 24.8235 46.9187 25.1085 46.6082L42.5175 27.5777C47.8275 21.7742 47.8275 12.3302 42.5175 6.5252ZM40.3005 25.5542L24 43.3727L7.698 25.5542C3.4095 20.8667 3.4095 13.2377 7.698 8.5502C9.7365 6.3212 12.4335 5.0957 15.2955 5.0957C18.1575 5.0957 20.8545 6.3212 22.8915 8.5487C23.46 9.1697 24.5385 9.1697 25.1085 8.5487C27.1455 6.3212 29.8425 5.0957 32.7045 5.0957C35.5665 5.0957 38.265 6.3212 40.302 8.5487C44.5905 13.2377 44.5905 20.8667 40.3005 25.5542Z" fill="#149998"/>
<path d="M36 20.0954H32.25L28.2 14.6954C27.888 14.2799 27.3885 14.0564 26.865 14.1014C26.3475 14.1479 25.8915 14.4599 25.6575 14.9249L20.7435 24.7544L17.7 20.6954C17.4165 20.3174 16.9725 20.0954 16.5 20.0954H12C11.172 20.0954 10.5 20.7674 10.5 21.5954C10.5 22.4234 11.172 23.0954 12 23.0954H15.75L19.8 28.4954C20.085 28.8749 20.5305 29.0954 21 29.0954C21.045 29.0954 21.09 29.0939 21.135 29.0894C21.6525 29.0429 22.1085 28.7309 22.3425 28.2659L27.2565 18.4364L30.3 22.4954C30.582 22.8734 31.0275 23.0954 31.5 23.0954H36C36.828 23.0954 37.5 22.4234 37.5 21.5954C37.5 20.7674 36.828 20.0954 36 20.0954Z" fill="#149998"/>
<path d="M61.512 25.5957V8.7957H69.408C70.544 8.7957 71.536 8.9877 72.384 9.3717C73.232 9.7557 73.896 10.2997 74.376 11.0037C74.856 11.6917 75.096 12.4917 75.096 13.4037C75.096 14.1397 74.904 14.8197 74.52 15.4437C74.152 16.0517 73.648 16.5477 73.008 16.9317C73.824 17.3157 74.472 17.8357 74.952 18.4917C75.432 19.1477 75.672 19.8917 75.672 20.7237C75.672 21.6837 75.424 22.5317 74.928 23.2677C74.448 24.0037 73.76 24.5797 72.864 24.9957C71.984 25.3957 70.96 25.5957 69.792 25.5957H61.512ZM64.992 15.6597H69.192C69.944 15.6597 70.536 15.4837 70.968 15.1317C71.416 14.7637 71.64 14.2757 71.64 13.6677C71.64 13.0597 71.416 12.5797 70.968 12.2277C70.536 11.8597 69.944 11.6757 69.192 11.6757H64.992V15.6597ZM64.992 22.7157H69.528C70.328 22.7157 70.968 22.5237 71.448 22.1397C71.928 21.7397 72.168 21.2117 72.168 20.5557C72.168 19.8837 71.928 19.3557 71.448 18.9717C70.968 18.5717 70.328 18.3717 69.528 18.3717H64.992V22.7157Z" fill="white"/>
<path d="M78.1058 25.5957V8.7957H81.5858V15.5637H89.3138V8.7957H92.7938V25.5957H89.3138V18.7077H81.5858V25.5957H78.1058ZM101.752 25.8357C100.504 25.8357 99.3679 25.5477 98.3439 24.9717C97.3359 24.3957 96.5359 23.6197 95.9439 22.6437C95.3519 21.6677 95.0559 20.5717 95.0559 19.3557C95.0559 18.1397 95.3359 17.0437 95.8959 16.0677C96.4719 15.0917 97.2479 14.3157 98.2239 13.7397C99.1999 13.1637 100.288 12.8757 101.488 12.8757C102.688 12.8757 103.752 13.1717 104.68 13.7637C105.608 14.3557 106.336 15.1557 106.864 16.1637C107.408 17.1717 107.68 18.3157 107.68 19.5957V20.4597H98.4159C98.5599 20.9557 98.7919 21.4037 99.1119 21.8037C99.4479 22.2037 99.8559 22.5157 100.336 22.7397C100.832 22.9637 101.36 23.0757 101.92 23.0757C102.48 23.0757 102.992 22.9877 103.456 22.8117C103.936 22.6357 104.344 22.3877 104.68 22.0677L106.84 24.0357C106.072 24.6597 105.28 25.1157 104.464 25.4037C103.664 25.6917 102.76 25.8357 101.752 25.8357ZM98.3679 18.1077H104.44C104.328 17.6117 104.12 17.1797 103.816 16.8117C103.528 16.4277 103.176 16.1317 102.76 15.9237C102.36 15.6997 101.912 15.5877 101.416 15.5877C100.904 15.5877 100.44 15.6917 100.024 15.8997C99.6079 16.1077 99.2559 16.4037 98.9679 16.7877C98.6959 17.1557 98.4959 17.5957 98.3679 18.1077ZM113.608 25.8117C112.712 25.8117 111.92 25.6517 111.232 25.3317C110.544 24.9957 110.008 24.5397 109.624 23.9637C109.24 23.3877 109.048 22.7237 109.048 21.9717C109.048 20.7717 109.496 19.8437 110.392 19.1877C111.304 18.5157 112.552 18.1797 114.136 18.1797C115.224 18.1797 116.248 18.3477 117.208 18.6837V17.7717C117.208 17.0517 116.984 16.5077 116.536 16.1397C116.088 15.7717 115.432 15.5877 114.568 15.5877C114.04 15.5877 113.472 15.6757 112.864 15.8517C112.256 16.0117 111.552 16.2677 110.752 16.6197L109.552 14.1957C110.544 13.7477 111.488 13.4117 112.384 13.1877C113.296 12.9637 114.208 12.8517 115.12 12.8517C116.8 12.8517 118.104 13.2597 119.032 14.0757C119.976 14.8757 120.448 16.0117 120.448 17.4837V25.5957H117.208V24.7077C116.696 25.0917 116.144 25.3717 115.552 25.5477C114.96 25.7237 114.312 25.8117 113.608 25.8117ZM112.168 21.8997C112.168 22.3797 112.376 22.7637 112.792 23.0517C113.208 23.3237 113.76 23.4597 114.448 23.4597C114.992 23.4597 115.496 23.3957 115.96 23.2677C116.424 23.1237 116.84 22.9157 117.208 22.6437V20.8197C116.808 20.6597 116.392 20.5397 115.96 20.4597C115.528 20.3797 115.064 20.3397 114.568 20.3397C113.816 20.3397 113.224 20.4837 112.792 20.7717C112.376 21.0437 112.168 21.4197 112.168 21.8997ZM122.937 25.5957V8.7957L126.225 8.2437V25.5957H122.937ZM134.724 25.7877C133.332 25.7877 132.276 25.4757 131.556 24.8517C130.852 24.2117 130.5 23.2837 130.5 22.0677V15.8277H127.932V13.0917H130.5V9.8997L133.788 9.1557V13.0917H137.364V15.8277H133.788V21.3957C133.788 21.9717 133.916 22.3877 134.172 22.6437C134.428 22.8837 134.876 23.0037 135.516 23.0037C135.836 23.0037 136.124 22.9877 136.38 22.9557C136.652 22.9077 136.948 22.8277 137.268 22.7157V25.4277C136.932 25.5397 136.508 25.6277 135.996 25.6917C135.5 25.7557 135.076 25.7877 134.724 25.7877ZM138.968 25.5957V8.7957L142.256 8.0757V14.1237C143.2 13.2757 144.368 12.8517 145.76 12.8517C146.736 12.8517 147.592 13.0677 148.328 13.4997C149.08 13.9157 149.664 14.4997 150.08 15.2517C150.496 15.9877 150.704 16.8517 150.704 17.8437V25.5957H147.416V18.3237C147.416 17.5077 147.184 16.8677 146.72 16.4037C146.256 15.9237 145.624 15.6837 144.824 15.6837C144.264 15.6837 143.768 15.7957 143.336 16.0197C142.904 16.2277 142.544 16.5317 142.256 16.9317V25.5957H138.968Z" fill="#149998"/>
<path d="M64.08 44.7057C63.56 44.7057 63.0767 44.6157 62.63 44.4357C62.19 44.249 61.8 43.9924 61.46 43.6657C61.1267 43.3324 60.8667 42.949 60.68 42.5157C60.5 42.0757 60.41 41.6024 60.41 41.0957C60.41 40.589 60.5 40.119 60.68 39.6857C60.8667 39.2457 61.1267 38.8624 61.46 38.5357C61.8 38.2024 62.1933 37.9457 62.64 37.7657C63.0867 37.579 63.5667 37.4857 64.08 37.4857C64.4467 37.4857 64.8033 37.5357 65.15 37.6357C65.5033 37.729 65.8267 37.8657 66.12 38.0457C66.42 38.2257 66.68 38.4424 66.9 38.6957L66.2 39.4157C65.94 39.1024 65.6233 38.8657 65.25 38.7057C64.8767 38.539 64.4867 38.4557 64.08 38.4557C63.7067 38.4557 63.36 38.5224 63.04 38.6557C62.7267 38.789 62.4533 38.9757 62.22 39.2157C61.9867 39.449 61.8033 39.7257 61.67 40.0457C61.5433 40.3657 61.48 40.7157 61.48 41.0957C61.48 41.469 61.5433 41.8157 61.67 42.1357C61.8033 42.4557 61.99 42.7357 62.23 42.9757C62.47 43.2157 62.75 43.4024 63.07 43.5357C63.39 43.669 63.7367 43.7357 64.11 43.7357C64.5167 43.7357 64.9 43.6557 65.26 43.4957C65.6267 43.329 65.9367 43.0957 66.19 42.7957L66.88 43.4957C66.6467 43.7424 66.38 43.959 66.08 44.1457C65.7867 44.3257 65.4667 44.4657 65.12 44.5657C64.78 44.659 64.4333 44.7057 64.08 44.7057ZM72.2073 44.5957L75.0973 37.5957H76.3373L79.1973 44.5957H78.0573L77.2473 42.5457H74.1173L73.2973 44.5957H72.2073ZM74.4573 41.6757H76.9073L75.6873 38.5957L74.4573 41.6757ZM84.919 44.5957V37.5957H88.089C88.5557 37.5957 88.9623 37.6824 89.309 37.8557C89.6623 38.029 89.9357 38.2724 90.129 38.5857C90.329 38.8924 90.429 39.2524 90.429 39.6657C90.429 40.1257 90.299 40.5224 90.039 40.8557C89.779 41.189 89.429 41.429 88.989 41.5757L90.549 44.5957H89.389L87.939 41.7257H85.969V44.5957H84.919ZM85.969 40.8457H88.009C88.4223 40.8457 88.7523 40.7424 88.999 40.5357C89.2523 40.3224 89.379 40.0357 89.379 39.6757C89.379 39.329 89.2523 39.049 88.999 38.8357C88.7523 38.6224 88.4223 38.5157 88.009 38.5157H85.969V40.8457ZM96.5108 44.5957V37.5957H101.671V38.5157H97.5608V40.6157H100.261V41.5057H97.5608V43.6757H101.711V44.5957H96.5108ZM116.01 44.5957L114.48 37.5957H115.56L116.65 42.9457L118.23 37.5957H119.23L120.81 42.9357L121.91 37.5957H122.94L121.41 44.5957H120.33L118.72 39.0957L117.1 44.5957H116.01ZM128.962 44.5957V37.5957H130.012V44.5957H128.962ZM138.362 44.5957V38.5257H135.902V37.5957H141.872V38.5257H139.412V44.5957H138.362ZM147.751 44.5957V37.5957H148.801V40.5957H152.521V37.5957H153.571V44.5957H152.521V41.5457H148.801V44.5957H147.751ZM167.087 44.5957V37.5957H168.137V43.6657H172.167V44.5957H167.087ZM180.984 44.7057C180.477 44.7057 180.004 44.6157 179.564 44.4357C179.124 44.249 178.734 43.9924 178.394 43.6657C178.06 43.3324 177.8 42.949 177.614 42.5157C177.434 42.0757 177.344 41.6024 177.344 41.0957C177.344 40.589 177.434 40.119 177.614 39.6857C177.8 39.2457 178.06 38.8624 178.394 38.5357C178.734 38.2024 179.124 37.9457 179.564 37.7657C180.004 37.579 180.477 37.4857 180.984 37.4857C181.49 37.4857 181.964 37.579 182.404 37.7657C182.85 37.9457 183.24 38.2024 183.574 38.5357C183.907 38.8624 184.167 39.2457 184.354 39.6857C184.54 40.119 184.634 40.589 184.634 41.0957C184.634 41.6024 184.54 42.0757 184.354 42.5157C184.167 42.949 183.907 43.3324 183.574 43.6657C183.24 43.9924 182.85 44.249 182.404 44.4357C181.964 44.6157 181.49 44.7057 180.984 44.7057ZM180.994 43.7357C181.354 43.7357 181.687 43.669 181.994 43.5357C182.307 43.4024 182.58 43.219 182.814 42.9857C183.047 42.7457 183.23 42.4657 183.364 42.1457C183.497 41.819 183.564 41.469 183.564 41.0957C183.564 40.7157 183.497 40.3657 183.364 40.0457C183.23 39.7257 183.047 39.449 182.814 39.2157C182.58 38.9757 182.307 38.789 181.994 38.6557C181.687 38.5224 181.354 38.4557 180.994 38.4557C180.627 38.4557 180.287 38.5224 179.974 38.6557C179.66 38.789 179.387 38.9757 179.154 39.2157C178.92 39.449 178.737 39.7257 178.604 40.0457C178.477 40.3657 178.414 40.7124 178.414 41.0857C178.414 41.4657 178.477 41.819 178.604 42.1457C178.737 42.4657 178.92 42.7457 179.154 42.9857C179.387 43.219 179.66 43.4024 179.974 43.5357C180.287 43.669 180.627 43.7357 180.994 43.7357ZM192.538 44.5957L189.678 37.5957H190.808L193.178 43.5557L195.588 37.5957H196.668L193.768 44.5957H192.538ZM202.39 44.5957V37.5957H207.55V38.5157H203.44V40.6157H206.14V41.5057H203.44V43.6757H207.59V44.5957H202.39Z" fill="white"/>
</svg>
