<svg width="25" height="25" viewBox="0 0 25 25" fill="none" xmlns="http://www.w3.org/2000/svg">
<path d="M8.375 6.04167H11.125L12.5 9.27083L13.875 6.04167H16.625L13.875 12.5L16.625 18.9583H13.875L12.5 15.7292L11.125 18.9583H8.375L11.125 12.5L8.375 6.04167ZM2.875 0.875H22.125C22.8543 0.875 23.5538 1.14717 24.0695 1.63164C24.5853 2.11611 24.875 2.77319 24.875 3.45833V21.5417C24.875 22.2268 24.5853 22.8839 24.0695 23.3684C23.5538 23.8528 22.8543 24.125 22.125 24.125H2.875C2.14565 24.125 1.44618 23.8528 0.930456 23.3684C0.414731 22.8839 0.125 22.2268 0.125 21.5417V3.45833C0.125 2.77319 0.414731 2.11611 0.930456 1.63164C1.44618 1.14717 2.14565 0.875 2.875 0.875ZM2.875 3.45833V21.5417H22.125V3.45833H2.875Z" fill="white"/>
</svg>
