<svg width="20" height="24" viewBox="0 0 20 24" fill="none" xmlns="http://www.w3.org/2000/svg">
<g clip-path="url(#clip0_5000_65508)">
<path d="M19.5352 18.7373C19.1848 19.5482 18.77 20.2946 18.2894 20.9808C17.6343 21.9163 17.0979 22.5638 16.6845 22.9234C16.0437 23.5137 15.3572 23.8159 14.622 23.8331C14.0942 23.8331 13.4577 23.6827 12.7168 23.3776C11.9734 23.0738 11.2903 22.9234 10.6656 22.9234C10.0105 22.9234 9.30795 23.0738 8.55645 23.3776C7.8038 23.6827 7.19748 23.8417 6.7339 23.8575C6.02888 23.8876 5.32615 23.5767 4.62471 22.9234C4.17701 22.5323 3.61703 21.8618 2.9462 20.912C2.22645 19.8977 1.63471 18.7216 1.17114 17.3806C0.674662 15.9323 0.425781 14.5297 0.425781 13.1719C0.425781 11.6165 0.761341 10.275 1.43346 9.15082C1.96169 8.24784 2.66442 7.53555 3.54394 7.01264C4.42346 6.48974 5.37378 6.22327 6.3972 6.20622C6.95718 6.20622 7.69152 6.37971 8.60408 6.72067C9.51407 7.06278 10.0984 7.23627 10.3545 7.23627C10.5461 7.23627 11.1952 7.03341 12.2955 6.62899C13.3361 6.25393 14.2143 6.09863 14.9338 6.1598C16.8834 6.31739 18.348 7.08714 19.3221 8.47391C17.5785 9.53204 16.716 11.0141 16.7332 12.9153C16.7489 14.3962 17.2853 15.6285 18.3395 16.607C18.8172 17.0612 19.3507 17.4121 19.9443 17.6614C19.8156 18.0353 19.6797 18.3935 19.5352 18.7373ZM15.064 1.1147C15.064 2.27542 14.6406 3.35918 13.7967 4.3623C12.7783 5.55481 11.5464 6.2439 10.2106 6.13516C10.1936 5.99591 10.1838 5.84936 10.1838 5.69535C10.1838 4.58106 10.6681 3.38855 11.5281 2.41351C11.9575 1.91983 12.5036 1.50935 13.1659 1.18189C13.8267 0.859326 14.4518 0.680939 15.0396 0.650391C15.0568 0.805561 15.064 0.96074 15.064 1.11469V1.1147Z" fill="black"/>
</g>
<defs>
<clipPath id="clip0_5000_65508">
<rect width="19.5185" height="23.2091" fill="white" transform="translate(0.425781 0.650391)"/>
</clipPath>
</defs>
</svg>
