<svg width="15" height="32" viewBox="0 0 15 32" fill="none" xmlns="http://www.w3.org/2000/svg">
<path d="M13.6931 9.41424V13.9597H0.227228V9.41424H13.6931ZM3.30961 31.2324V7.83753C3.30961 6.25609 3.61738 4.94454 4.23291 3.90287C4.85791 2.86121 5.71018 2.07996 6.78973 1.55912C7.86927 1.03829 9.0956 0.777874 10.4687 0.777874C11.3967 0.777874 12.2443 0.848898 13.0113 0.990944C13.7878 1.13299 14.3655 1.26083 14.7443 1.37447L13.6647 5.91992C13.428 5.84416 13.1344 5.77314 12.784 5.70685C12.4431 5.64057 12.0928 5.60742 11.7329 5.60742C10.8428 5.60742 10.2225 5.81576 9.87212 6.23242C9.52174 6.63962 9.34655 7.21254 9.34655 7.95117V31.2324H3.30961Z" fill="#3B5999"/>
</svg>
