<svg width="25" height="24" viewBox="0 0 25 24" fill="none" xmlns="http://www.w3.org/2000/svg">
<g clip-path="url(#clip0_5000_65501)">
<path d="M6.04676 14.0593L5.23983 17.0716L2.29054 17.134C1.40913 15.4992 0.90918 13.6288 0.90918 11.6411C0.90918 9.71904 1.37662 7.90652 2.20519 6.31055H2.20582L4.83152 6.79193L5.98174 9.40188C5.741 10.1037 5.60979 10.8571 5.60979 11.6411C5.60988 12.4919 5.764 13.3072 6.04676 14.0593Z" fill="#FBBB00"/>
<path d="M23.8884 9.47656C24.0216 10.1777 24.091 10.9018 24.091 11.6419C24.091 12.4717 24.0037 13.2812 23.8375 14.062C23.2733 16.719 21.7989 19.0391 19.7565 20.6809L19.7559 20.6803L16.4487 20.5115L15.9806 17.5896C17.3358 16.7948 18.3949 15.551 18.9528 14.062H12.7549V9.47656H19.0433H23.8884Z" fill="#518EF8"/>
<path d="M19.7559 20.6807L19.7565 20.6814C17.7701 22.278 15.2469 23.2333 12.5001 23.2333C8.08598 23.2333 4.24826 20.7661 2.29053 17.1353L6.04675 14.0605C7.0256 16.6729 9.54567 18.5326 12.5001 18.5326C13.77 18.5326 14.9597 18.1893 15.9805 17.59L19.7559 20.6807Z" fill="#28B446"/>
<path d="M19.8984 2.71923L16.1435 5.79335C15.0869 5.13294 13.838 4.75144 12.5 4.75144C9.47869 4.75144 6.91148 6.6964 5.98168 9.40247L2.20571 6.31114H2.20508C4.13415 2.59186 8.02027 0.0507812 12.5 0.0507812C15.3124 0.0507812 17.891 1.05258 19.8984 2.71923Z" fill="#F14336"/>
</g>
<defs>
<clipPath id="clip0_5000_65501">
<rect width="23.1818" height="23.1818" fill="white" transform="translate(0.90918 0.0507812)"/>
</clipPath>
</defs>
</svg>
