<svg width="18" height="18" viewBox="0 0 18 18" fill="none" xmlns="http://www.w3.org/2000/svg">
<g clip-path="url(#clip0_5910_17803)">
<path d="M15.4167 7.88952C15.4167 12.8531 9.03503 17.1075 9.03503 17.1075C9.03503 17.1075 2.65332 12.8531 2.65332 7.88952C2.65332 6.19699 3.32568 4.57377 4.52248 3.37697C5.71928 2.18017 7.3425 1.50781 9.03503 1.50781C10.7276 1.50781 12.3508 2.18017 13.5476 3.37697C14.7444 4.57377 15.4167 6.19699 15.4167 7.88952Z" stroke="#3E4D5C" stroke-width="1.41816" stroke-linecap="round" stroke-linejoin="round"/>
<path d="M9.03544 10.0162C10.2103 10.0162 11.1627 9.0638 11.1627 7.88896C11.1627 6.71411 10.2103 5.76172 9.03544 5.76172C7.8606 5.76172 6.9082 6.71411 6.9082 7.88896C6.9082 9.0638 7.8606 10.0162 9.03544 10.0162Z" stroke="#3E4D5C" stroke-width="1.41816" stroke-linecap="round" stroke-linejoin="round"/>
</g>
<defs>
<clipPath id="clip0_5910_17803">
<rect width="17.0179" height="17.0179" fill="white" transform="translate(0.526367 0.798828)"/>
</clipPath>
</defs>
</svg>
