<svg width="47" height="43" viewBox="0 0 47 43" fill="none" xmlns="http://www.w3.org/2000/svg">
<path d="M37.0118 15.05L34.5702 9.89L29.2432 7.525L34.5702 5.16L37.0118 0L39.4534 5.16L44.7804 7.525L39.4534 9.89L37.0118 15.05ZM41.451 30.1L39.6753 26.445L35.902 24.725L39.6753 23.005L41.451 19.35L43.2267 23.005L47 24.725L43.2267 26.445L41.451 30.1ZM12.5962 43L11.9303 37.9475C11.6344 37.84 11.3481 37.6967 11.0714 37.5175C10.7932 37.3383 10.5616 37.1592 10.3766 36.98L5.49351 39.0225L0 29.67L4.16175 26.66V24.94L0 21.93L5.49351 12.5775L10.3766 14.62C10.5616 14.4408 10.7932 14.2617 11.0714 14.0825C11.3481 13.9033 11.6344 13.76 11.9303 13.6525L12.5962 8.6H23.6942L24.3601 13.6525C24.656 13.76 24.9431 13.9033 25.2213 14.0825C25.498 14.2617 25.7288 14.4408 25.9138 14.62L30.7969 12.5775L36.2904 21.93L32.1287 24.94V26.66L36.2904 29.67L30.7969 39.0225L25.9138 36.98C25.7288 37.1592 25.498 37.3383 25.2213 37.5175C24.9431 37.6967 24.656 37.84 24.3601 37.9475L23.6942 43H12.5962ZM18.1452 32.25C19.9949 32.25 21.5671 31.6229 22.8619 30.3688C24.1566 29.1146 24.804 27.5917 24.804 25.8C24.804 24.0083 24.1566 22.4854 22.8619 21.2313C21.5671 19.9771 19.9949 19.35 18.1452 19.35C16.2956 19.35 14.7233 19.9771 13.4286 21.2313C12.1338 22.4854 11.4864 24.0083 11.4864 25.8C11.4864 27.5917 12.1338 29.1146 13.4286 30.3688C14.7233 31.6229 16.2956 32.25 18.1452 32.25ZM18.1452 27.95C17.5163 27.95 16.9888 27.7436 16.5626 27.3308C16.138 26.9194 15.9256 26.4092 15.9256 25.8C15.9256 25.1908 16.138 24.6798 16.5626 24.267C16.9888 23.8557 17.5163 23.65 18.1452 23.65C18.7741 23.65 19.3016 23.8557 19.7278 24.267C20.1525 24.6798 20.3648 25.1908 20.3648 25.8C20.3648 26.4092 20.1525 26.9194 19.7278 27.3308C19.3016 27.7436 18.7741 27.95 18.1452 27.95ZM16.4805 38.7H19.8099L20.2538 34.83C21.3266 34.5433 22.2426 34.1764 23.0017 33.7292C23.7593 33.2806 24.5081 32.68 25.2479 31.9275L28.9103 33.54L30.464 30.8525L27.2456 28.4875C27.5415 27.6633 27.6895 26.7675 27.6895 25.8C27.6895 24.8325 27.5415 23.9367 27.2456 23.1125L30.464 20.7475L28.9103 18.06L25.2479 19.6725C24.5081 18.92 23.7593 18.3194 23.0017 17.8708C22.2426 17.4236 21.3266 17.0567 20.2538 16.77L19.8099 12.9H16.4805L16.0366 16.77C14.9638 17.0567 14.0486 17.4236 13.291 17.8708C12.5319 18.3194 11.7824 18.92 11.0425 19.6725L7.38017 18.06L5.82645 20.7475L9.04487 23.1125C8.74892 23.9367 8.59207 24.8325 8.57431 25.8C8.55507 26.7675 8.71193 27.6633 9.04487 28.4875L5.82645 30.8525L7.38017 33.54L11.0425 31.9275C11.7824 32.68 12.5319 33.2806 13.291 33.7292C14.0486 34.1764 14.9638 34.5433 16.0366 34.83L16.4805 38.7Z" fill="#0F0D15"/>
</svg>
