<svg width="18" height="18" viewBox="0 0 18 18" fill="none" xmlns="http://www.w3.org/2000/svg">
<g clip-path="url(#clip0_5910_17813)">
<path d="M16.1257 12.8334V14.9607C16.1265 15.1581 16.086 15.3536 16.0069 15.5346C15.9278 15.7155 15.8118 15.8779 15.6663 16.0114C15.5207 16.1449 15.3489 16.2466 15.1619 16.3098C14.9748 16.3731 14.7766 16.3966 14.5799 16.3788C12.3979 16.1417 10.302 15.3961 8.46054 14.202C6.74728 13.1133 5.29474 11.6607 4.20607 9.94748C3.00771 8.09764 2.26194 5.99153 2.02919 3.79977C2.01147 3.60368 2.03478 3.40606 2.09762 3.21947C2.16046 3.03289 2.26147 2.86144 2.3942 2.71603C2.52694 2.57062 2.6885 2.45444 2.86859 2.37489C3.04869 2.29534 3.24338 2.25416 3.44026 2.25397H5.5675C5.91162 2.25059 6.24523 2.37245 6.50615 2.59684C6.76707 2.82123 6.93749 3.13284 6.98565 3.47359C7.07544 4.15435 7.24195 4.82277 7.48201 5.4661C7.57741 5.7199 7.59806 5.99572 7.54151 6.26089C7.48495 6.52607 7.35357 6.76947 7.16292 6.96226L6.26239 7.86279C7.27181 9.638 8.74166 11.1078 10.5169 12.1173L11.4174 11.2167C11.6102 11.0261 11.8536 10.8947 12.1188 10.8381C12.3839 10.7816 12.6598 10.8022 12.9136 10.8976C13.5569 11.1377 14.2253 11.3042 14.9061 11.394C15.2505 11.4426 15.5651 11.6161 15.79 11.8815C16.0148 12.1469 16.1343 12.4857 16.1257 12.8334Z" stroke="#3E4D5C" stroke-width="1.41816" stroke-linecap="round" stroke-linejoin="round"/>
</g>
<defs>
<clipPath id="clip0_5910_17813">
<rect width="17.0179" height="17.0179" fill="white" transform="translate(0.526367 0.835938)"/>
</clipPath>
</defs>
</svg>
