<svg width="18" height="18" viewBox="0 0 18 18" fill="none" xmlns="http://www.w3.org/2000/svg">
<g clip-path="url(#clip0_5910_17817)">
<path d="M9.03512 16.4531C12.9513 16.4531 16.1259 13.2784 16.1259 9.36227C16.1259 5.44614 12.9513 2.27148 9.03512 2.27148C5.11899 2.27148 1.94434 5.44614 1.94434 9.36227C1.94434 13.2784 5.11899 16.4531 9.03512 16.4531Z" stroke="#3E4D5C" stroke-width="1.41816" stroke-linecap="round" stroke-linejoin="round"/>
<path d="M1.94434 9.36133H16.1259" stroke="#3E4D5C" stroke-width="1.41816" stroke-linecap="round" stroke-linejoin="round"/>
<path d="M9.03553 2.27148C10.8091 4.21319 11.8171 6.73303 11.8719 9.36227C11.8171 11.9915 10.8091 14.5114 9.03553 16.4531C7.26193 14.5114 6.25399 11.9915 6.19922 9.36227C6.25399 6.73303 7.26193 4.21319 9.03553 2.27148V2.27148Z" stroke="#3E4D5C" stroke-width="1.41816" stroke-linecap="round" stroke-linejoin="round"/>
</g>
<defs>
<clipPath id="clip0_5910_17817">
<rect width="17.0179" height="17.0179" fill="white" transform="translate(0.526367 0.853516)"/>
</clipPath>
</defs>
</svg>
