<svg width="169" height="39" viewBox="0 0 169 39" fill="none" xmlns="http://www.w3.org/2000/svg">
<path d="M34.461 4.80512C32.3431 2.48901 29.5188 1.21484 26.5072 1.21484C23.9042 1.21484 21.4398 2.16803 19.4519 3.92244C17.4641 2.16803 14.9996 1.21484 12.3966 1.21484C9.38505 1.21484 6.56074 2.48901 4.44281 4.80512C0.138857 9.51028 0.138857 17.165 4.44281 21.8702L18.5534 37.2951C18.7844 37.5455 19.1103 37.689 19.4519 37.689C19.7936 37.689 20.1194 37.5455 20.3504 37.2938L34.461 21.8689C38.765 17.165 38.765 9.51028 34.461 4.80512ZM32.6641 20.2288L19.4519 34.6714L6.23855 20.2288C2.76256 16.4294 2.76256 10.2458 6.23855 6.44645C7.89083 4.63977 10.0768 3.64645 12.3966 3.64645C14.7164 3.64645 16.9024 4.63977 18.5534 6.44524C19.0142 6.94858 19.8884 6.94858 20.3504 6.44524C22.0015 4.63977 24.1875 3.64645 26.5072 3.64645C28.827 3.64645 31.0142 4.63977 32.6653 6.44524C36.1413 10.2458 36.1413 16.4294 32.6641 20.2288Z" fill="#149998"/>
<path d="M29.1784 15.8044H26.1389L22.8563 11.4275C22.6034 11.0907 22.1985 10.9096 21.7742 10.946C21.3547 10.9837 20.9851 11.2366 20.7955 11.6135L16.8125 19.5807L14.3456 16.2907C14.1158 15.9843 13.756 15.8044 13.373 15.8044H9.72557C9.05445 15.8044 8.50977 16.3491 8.50977 17.0202C8.50977 17.6913 9.05445 18.236 9.72557 18.236H12.7651L16.0478 22.6129C16.2788 22.9205 16.6399 23.0992 17.0204 23.0992C17.0569 23.0992 17.0933 23.098 17.1298 23.0943C17.5493 23.0567 17.9189 22.8038 18.1085 22.4269L22.0915 14.4597L24.5584 17.7497C24.787 18.0561 25.1481 18.236 25.531 18.236H29.1784C29.8496 18.236 30.3943 17.6913 30.3943 17.0202C30.3943 16.3491 29.8496 15.8044 29.1784 15.8044Z" fill="#149998"/>
<path d="M49.8583 19.832V6.21502H56.2583C57.1791 6.21502 57.9832 6.37064 58.6705 6.68189C59.3578 6.99313 59.896 7.43406 60.2851 8.00468C60.6741 8.56233 60.8687 9.21076 60.8687 9.94997C60.8687 10.5465 60.713 11.0977 60.4018 11.6035C60.1035 12.0963 59.695 12.4983 59.1763 12.8095C59.8377 13.1208 60.3629 13.5423 60.752 14.074C61.141 14.6057 61.3355 15.2087 61.3355 15.8831C61.3355 16.6612 61.1345 17.3485 60.7325 17.9451C60.3434 18.5417 59.7858 19.0085 59.0596 19.3457C58.3463 19.6699 57.5163 19.832 56.5696 19.832H49.8583ZM52.679 11.7785H56.0833C56.6928 11.7785 57.1726 11.6359 57.5228 11.3506C57.8859 11.0523 58.0675 10.6568 58.0675 10.164C58.0675 9.67114 57.8859 9.28209 57.5228 8.99678C57.1726 8.6985 56.6928 8.54936 56.0833 8.54936H52.679V11.7785ZM52.679 17.4977H56.3556C57.004 17.4977 57.5228 17.3421 57.9118 17.0308C58.3009 16.7066 58.4954 16.2786 58.4954 15.7469C58.4954 15.2022 58.3009 14.7743 57.9118 14.463C57.5228 14.1388 57.004 13.9767 56.3556 13.9767H52.679V17.4977Z" fill="#2C3E50"/>
<path d="M63.3082 19.832V6.21502H66.1289V11.7007H72.3927V6.21502H75.2133V19.832H72.3927V14.2491H66.1289V19.832H63.3082ZM82.4743 20.0266C81.4627 20.0266 80.542 19.7931 79.712 19.3263C78.895 18.8594 78.2465 18.2304 77.7667 17.4393C77.2868 16.6482 77.0469 15.7599 77.0469 14.7743C77.0469 13.7887 77.2739 12.9003 77.7278 12.1092C78.1947 11.3182 78.8236 10.6892 79.6147 10.2223C80.4058 9.75544 81.2877 9.52201 82.2603 9.52201C83.2329 9.52201 84.0954 9.76192 84.8475 10.2418C85.5997 10.7216 86.1898 11.37 86.6177 12.1871C87.0587 13.0041 87.2791 13.9313 87.2791 14.9688V15.6691H79.7703C79.8871 16.0711 80.0751 16.4343 80.3345 16.7585C80.6068 17.0827 80.9375 17.3356 81.3266 17.5171C81.7286 17.6987 82.1566 17.7895 82.6105 17.7895C83.0644 17.7895 83.4793 17.7182 83.8554 17.5755C84.2445 17.4328 84.5752 17.2318 84.8475 16.9725L86.5983 18.5676C85.9758 19.0734 85.3339 19.443 84.6725 19.6764C84.024 19.9098 83.2913 20.0266 82.4743 20.0266ZM79.7314 13.7627H84.653C84.5622 13.3607 84.3936 13.0106 84.1472 12.7123C83.9138 12.401 83.6285 12.1611 83.2913 11.9925C82.9671 11.811 82.604 11.7202 82.2019 11.7202C81.7869 11.7202 81.4109 11.8045 81.0737 11.9731C80.7365 12.1417 80.4512 12.3816 80.2177 12.6928C79.9973 12.9911 79.8352 13.3477 79.7314 13.7627ZM92.0842 20.0071C91.3579 20.0071 90.716 19.8774 90.1583 19.618C89.6007 19.3457 89.1662 18.9761 88.855 18.5092C88.5437 18.0424 88.3881 17.5042 88.3881 16.8946C88.3881 15.922 88.7512 15.1698 89.4775 14.6381C90.2167 14.0934 91.2282 13.8211 92.5121 13.8211C93.394 13.8211 94.224 13.9573 95.0021 14.2296V13.4904C95.0021 12.9068 94.8205 12.4659 94.4574 12.1676C94.0943 11.8693 93.5626 11.7202 92.8623 11.7202C92.4343 11.7202 91.9739 11.7915 91.4811 11.9342C90.9883 12.0638 90.4177 12.2713 89.7693 12.5567L88.7966 10.5919C89.6007 10.2288 90.3658 9.95645 91.0921 9.77489C91.8313 9.59333 92.5705 9.50255 93.3097 9.50255C94.6714 9.50255 95.7283 9.83325 96.4805 10.4946C97.2457 11.1431 97.6282 12.0638 97.6282 13.257V19.832H95.0021V19.1123C94.5871 19.4235 94.1397 19.6505 93.6598 19.7931C93.18 19.9358 92.6548 20.0071 92.0842 20.0071ZM90.917 16.8363C90.917 17.2253 91.0856 17.5366 91.4228 17.77C91.7599 17.9905 92.2074 18.1007 92.765 18.1007C93.2059 18.1007 93.6144 18.0489 93.9905 17.9451C94.3666 17.8284 94.7038 17.6598 95.0021 17.4393V15.9609C94.6779 15.8312 94.3407 15.734 93.9905 15.6691C93.6404 15.6043 93.2643 15.5719 92.8623 15.5719C92.2527 15.5719 91.7729 15.6886 91.4228 15.922C91.0856 16.1425 90.917 16.4472 90.917 16.8363ZM99.6452 19.832V6.21502L102.31 5.7676V19.832H99.6452ZM109.199 19.9877C108.071 19.9877 107.215 19.7348 106.632 19.229C106.061 18.7102 105.776 17.9581 105.776 16.9725V11.9147H103.694V9.69708H105.776V7.10985L108.441 6.50681V9.69708H111.339V11.9147H108.441V16.4278C108.441 16.8946 108.544 17.2318 108.752 17.4393C108.959 17.6339 109.323 17.7311 109.841 17.7311C110.101 17.7311 110.334 17.7182 110.542 17.6922C110.762 17.6533 111.002 17.5885 111.261 17.4977V19.6959C110.989 19.7866 110.645 19.858 110.23 19.9098C109.828 19.9617 109.485 19.9877 109.199 19.9877ZM112.639 19.832V6.21502L115.304 5.63143V10.5336C116.069 9.84622 117.016 9.50255 118.144 9.50255C118.935 9.50255 119.629 9.67763 120.226 10.0278C120.835 10.365 121.309 10.8383 121.646 11.4478C121.983 12.0444 122.152 12.7447 122.152 13.5488V19.832H119.487V13.9378C119.487 13.2764 119.299 12.7577 118.922 12.3816C118.546 11.9925 118.034 11.798 117.386 11.798C116.932 11.798 116.53 11.8888 116.18 12.0703C115.829 12.2389 115.538 12.4853 115.304 12.8095V19.832H112.639Z" fill="#149998"/>
<path d="M51.9398 35.1634C51.5183 35.1634 51.1266 35.0904 50.7645 34.9445C50.4079 34.7932 50.0918 34.5852 49.8162 34.3204C49.546 34.0502 49.3353 33.7395 49.184 33.3883C49.0381 33.0317 48.9651 32.648 48.9651 32.2373C48.9651 31.8267 49.0381 31.4457 49.184 31.0945C49.3353 30.7378 49.546 30.4271 49.8162 30.1624C50.0918 29.8922 50.4106 29.6842 50.7726 29.5383C51.1347 29.387 51.5237 29.3113 51.9398 29.3113C52.237 29.3113 52.5261 29.3518 52.8071 29.4329C53.0935 29.5085 53.3555 29.6193 53.5933 29.7652C53.8365 29.9111 54.0472 30.0867 54.2255 30.2921L53.6581 30.8756C53.4474 30.6217 53.1907 30.4298 52.8881 30.3002C52.5855 30.1651 52.2694 30.0975 51.9398 30.0975C51.6372 30.0975 51.3562 30.1516 51.0968 30.2596C50.8429 30.3677 50.6213 30.519 50.4322 30.7135C50.2431 30.9027 50.0945 31.1269 49.9864 31.3863C49.8837 31.6456 49.8324 31.9293 49.8324 32.2373C49.8324 32.5399 49.8837 32.8209 49.9864 33.0803C50.0945 33.3397 50.2458 33.5666 50.4403 33.7611C50.6348 33.9557 50.8618 34.107 51.1212 34.2151C51.3805 34.3231 51.6615 34.3772 51.9641 34.3772C52.2937 34.3772 52.6044 34.3123 52.8962 34.1826C53.1934 34.0475 53.4447 33.8584 53.65 33.6153L54.2093 34.1826C54.0202 34.3826 53.804 34.5582 53.5609 34.7095C53.3231 34.8554 53.0637 34.9688 52.7828 35.0499C52.5072 35.1256 52.2262 35.1634 51.9398 35.1634ZM58.5272 35.0742L60.8697 29.4005H61.8748L64.1929 35.0742H63.2689L62.6124 33.4126H60.0754L59.4107 35.0742H58.5272ZM60.351 32.7075H62.3368L61.3479 30.211L60.351 32.7075ZM68.8306 35.0742V29.4005H71.4C71.7782 29.4005 72.1078 29.4707 72.3888 29.6112C72.6752 29.7517 72.8967 29.9489 73.0535 30.2029C73.2156 30.4515 73.2966 30.7433 73.2966 31.0783C73.2966 31.4511 73.1912 31.7726 72.9805 32.0428C72.7698 32.313 72.4861 32.5075 72.1294 32.6264L73.3939 35.0742H72.4537L71.2784 32.748H69.6816V35.0742H68.8306ZM69.6816 32.0347H71.3351C71.6701 32.0347 71.9376 31.951 72.1375 31.7834C72.3429 31.6105 72.4456 31.3782 72.4456 31.0864C72.4456 30.8054 72.3429 30.5784 72.1375 30.4055C71.9376 30.2326 71.6701 30.1462 71.3351 30.1462H69.6816V32.0347ZM78.2261 35.0742V29.4005H82.4085V30.1462H79.0772V31.8483H81.2656V32.5697H79.0772V34.3285H82.4409V35.0742H78.2261ZM94.0309 35.0742L92.7908 29.4005H93.6662L94.5496 33.7368L95.8303 29.4005H96.6408L97.9215 33.7287L98.8131 29.4005H99.6479L98.4078 35.0742H97.5324L96.2274 30.6163L94.9144 35.0742H94.0309ZM104.529 35.0742V29.4005H105.38V35.0742H104.529ZM112.148 35.0742V30.1543H110.154V29.4005H114.993V30.1543H112.999V35.0742H112.148ZM119.758 35.0742V29.4005H120.609V31.8321H123.624V29.4005H124.476V35.0742H123.624V32.6021H120.609V35.0742H119.758ZM135.431 35.0742V29.4005H136.282V34.3204H139.548V35.0742H135.431ZM146.694 35.1634C146.284 35.1634 145.9 35.0904 145.543 34.9445C145.187 34.7932 144.871 34.5852 144.595 34.3204C144.325 34.0502 144.114 33.7395 143.963 33.3883C143.817 33.0317 143.744 32.648 143.744 32.2373C143.744 31.8267 143.817 31.4457 143.963 31.0945C144.114 30.7378 144.325 30.4271 144.595 30.1624C144.871 29.8922 145.187 29.6842 145.543 29.5383C145.9 29.387 146.284 29.3113 146.694 29.3113C147.105 29.3113 147.489 29.387 147.845 29.5383C148.207 29.6842 148.524 29.8922 148.794 30.1624C149.064 30.4271 149.275 30.7378 149.426 31.0945C149.577 31.4457 149.653 31.8267 149.653 32.2373C149.653 32.648 149.577 33.0317 149.426 33.3883C149.275 33.7395 149.064 34.0502 148.794 34.3204C148.524 34.5852 148.207 34.7932 147.845 34.9445C147.489 35.0904 147.105 35.1634 146.694 35.1634ZM146.703 34.3772C146.994 34.3772 147.265 34.3231 147.513 34.2151C147.767 34.107 147.989 33.9584 148.178 33.7693C148.367 33.5747 148.515 33.3478 148.624 33.0884C148.732 32.8236 148.786 32.5399 148.786 32.2373C148.786 31.9293 148.732 31.6456 148.624 31.3863C148.515 31.1269 148.367 30.9027 148.178 30.7135C147.989 30.519 147.767 30.3677 147.513 30.2596C147.265 30.1516 146.994 30.0975 146.703 30.0975C146.405 30.0975 146.13 30.1516 145.876 30.2596C145.622 30.3677 145.4 30.519 145.211 30.7135C145.022 30.9027 144.873 31.1269 144.765 31.3863C144.663 31.6456 144.611 31.9266 144.611 32.2292C144.611 32.5372 144.663 32.8236 144.765 33.0884C144.873 33.3478 145.022 33.5747 145.211 33.7693C145.4 33.9584 145.622 34.107 145.876 34.2151C146.13 34.3231 146.405 34.3772 146.703 34.3772ZM156.06 35.0742L153.742 29.4005H154.657L156.578 34.2313L158.532 29.4005H159.407L157.057 35.0742H156.06ZM164.045 35.0742V29.4005H168.227V30.1462H164.896V31.8483H167.084V32.5697H164.896V34.3285H168.26V35.0742H164.045Z" fill="#3E4D5C"/>
</svg>
