<svg width="15" height="14" viewBox="0 0 15 14" fill="none" xmlns="http://www.w3.org/2000/svg">
<g clip-path="url(#clip0_6064_18393)">
<path d="M13.1246 9.76755V11.4551C13.1252 11.6117 13.0931 11.7668 13.0304 11.9103C12.9676 12.0539 12.8755 12.1827 12.7601 12.2886C12.6447 12.3945 12.5084 12.4751 12.36 12.5253C12.2116 12.5755 12.0543 12.5942 11.8983 12.5801C10.1674 12.392 8.50475 11.8005 7.04394 10.8532C5.68484 9.98955 4.53257 8.83728 3.66894 7.47818C2.7183 6.01073 2.1267 4.33999 1.94207 2.6013C1.92801 2.44575 1.9465 2.28898 1.99635 2.14097C2.0462 1.99295 2.12632 1.85694 2.23162 1.74159C2.33692 1.62624 2.46508 1.53408 2.60795 1.47097C2.75082 1.40787 2.90526 1.3752 3.06144 1.37505H4.74894C5.02193 1.37237 5.28657 1.46904 5.49356 1.64704C5.70054 1.82505 5.83573 2.07224 5.87394 2.34255C5.94517 2.88259 6.07726 3.41284 6.26769 3.92318C6.34337 4.12451 6.35975 4.34332 6.31489 4.55367C6.27003 4.76403 6.1658 4.95712 6.01457 5.11005L5.30019 5.82443C6.10094 7.23267 7.26695 8.39868 8.67519 9.19943L9.38957 8.48505C9.5425 8.33382 9.73559 8.22959 9.94595 8.18473C10.1563 8.13987 10.3751 8.15625 10.5764 8.23193C11.0868 8.42236 11.617 8.55445 12.1571 8.62568C12.4303 8.66423 12.6799 8.80186 12.8582 9.0124C13.0366 9.22293 13.1314 9.49169 13.1246 9.76755Z" stroke="white" stroke-width="1.125" stroke-linecap="round" stroke-linejoin="round"/>
</g>
<defs>
<clipPath id="clip0_6064_18393">
<rect width="13.5" height="13.5" fill="white" transform="translate(0.75 0.25)"/>
</clipPath>
</defs>
</svg>
