<svg width="18" height="18" viewBox="0 0 18 18" fill="none" xmlns="http://www.w3.org/2000/svg">
<mask id="mask0_6232_14094" style="mask-type:alpha" maskUnits="userSpaceOnUse" x="0" y="0" width="18" height="18">
<path fill-rule="evenodd" clip-rule="evenodd" d="M4.5 12.375H2.25V15.75H4.5V12.375ZM10.125 7.875H7.875V15.75H10.125V7.875ZM15.75 2.25L13.5 2.25V15.75H15.75V2.25ZM13.5 1.125C12.8787 1.125 12.375 1.62868 12.375 2.25V15.75C12.375 16.3713 12.8787 16.875 13.5 16.875H15.75C16.3713 16.875 16.875 16.3713 16.875 15.75V2.25C16.875 1.62868 16.3713 1.125 15.75 1.125H13.5ZM6.75 7.875C6.75 7.25368 7.25368 6.75 7.875 6.75H10.125C10.7463 6.75 11.25 7.25368 11.25 7.875V15.75C11.25 16.3713 10.7463 16.875 10.125 16.875H7.875C7.25368 16.875 6.75 16.3713 6.75 15.75V7.875ZM1.125 12.375C1.125 11.7537 1.62868 11.25 2.25 11.25H4.5C5.12132 11.25 5.625 11.7537 5.625 12.375V15.75C5.625 16.3713 5.12132 16.875 4.5 16.875H2.25C1.62868 16.875 1.125 16.3713 1.125 15.75V12.375Z" fill="black"/>
</mask>
<g mask="url(#mask0_6232_14094)">
<rect width="18" height="18" fill="#F7936F"/>
</g>
</svg>
