<svg width="177" height="49" viewBox="0 0 177 49" fill="none" xmlns="http://www.w3.org/2000/svg">
<path d="M42.5175 6.5252C39.9045 3.6677 36.42 2.0957 32.7045 2.0957C29.493 2.0957 26.4525 3.2717 24 5.4362C21.5475 3.2717 18.507 2.0957 15.2955 2.0957C11.58 2.0957 8.0955 3.6677 5.4825 6.5252C0.1725 12.3302 0.1725 21.7742 5.4825 27.5792L22.8915 46.6097C23.1765 46.9187 23.5785 47.0957 24 47.0957C24.4215 47.0957 24.8235 46.9187 25.1085 46.6082L42.5175 27.5777C47.8275 21.7742 47.8275 12.3302 42.5175 6.5252ZM40.3005 25.5542L24 43.3727L7.698 25.5542C3.4095 20.8667 3.4095 13.2377 7.698 8.5502C9.7365 6.3212 12.4335 5.0957 15.2955 5.0957C18.1575 5.0957 20.8545 6.3212 22.8915 8.5487C23.46 9.1697 24.5385 9.1697 25.1085 8.5487C27.1455 6.3212 29.8425 5.0957 32.7045 5.0957C35.5665 5.0957 38.265 6.3212 40.302 8.5487C44.5905 13.2377 44.5905 20.8667 40.3005 25.5542Z" fill="white"/>
<path d="M36 20.0954H32.25L28.2 14.6954C27.888 14.2799 27.3885 14.0564 26.865 14.1014C26.3475 14.1479 25.8915 14.4599 25.6575 14.9249L20.7435 24.7544L17.7 20.6954C17.4165 20.3174 16.9725 20.0954 16.5 20.0954H12C11.172 20.0954 10.5 20.7674 10.5 21.5954C10.5 22.4234 11.172 23.0954 12 23.0954H15.75L19.8 28.4954C20.085 28.8749 20.5305 29.0954 21 29.0954C21.045 29.0954 21.09 29.0939 21.135 29.0894C21.6525 29.0429 22.1085 28.7309 22.3425 28.2659L27.2565 18.4364L30.3 22.4954C30.582 22.8734 31.0275 23.0954 31.5 23.0954H36C36.828 23.0954 37.5 22.4234 37.5 21.5954C37.5 20.7674 36.828 20.0954 36 20.0954Z" fill="#DD9500"/>
<path d="M61.512 23.5957V6.7957H69.408C70.544 6.7957 71.536 6.9877 72.384 7.3717C73.232 7.7557 73.896 8.2997 74.376 9.0037C74.856 9.6917 75.096 10.4917 75.096 11.4037C75.096 12.1397 74.904 12.8197 74.52 13.4437C74.152 14.0517 73.648 14.5477 73.008 14.9317C73.824 15.3157 74.472 15.8357 74.952 16.4917C75.432 17.1477 75.672 17.8917 75.672 18.7237C75.672 19.6837 75.424 20.5317 74.928 21.2677C74.448 22.0037 73.76 22.5797 72.864 22.9957C71.984 23.3957 70.96 23.5957 69.792 23.5957H61.512ZM64.992 13.6597H69.192C69.944 13.6597 70.536 13.4837 70.968 13.1317C71.416 12.7637 71.64 12.2757 71.64 11.6677C71.64 11.0597 71.416 10.5797 70.968 10.2277C70.536 9.8597 69.944 9.6757 69.192 9.6757H64.992V13.6597ZM64.992 20.7157H69.528C70.328 20.7157 70.968 20.5237 71.448 20.1397C71.928 19.7397 72.168 19.2117 72.168 18.5557C72.168 17.8837 71.928 17.3557 71.448 16.9717C70.968 16.5717 70.328 16.3717 69.528 16.3717H64.992V20.7157ZM78.1058 23.5957V6.7957H81.5858V13.5637H89.3138V6.7957H92.7938V23.5957H89.3138V16.7077H81.5858V23.5957H78.1058ZM101.752 23.8357C100.504 23.8357 99.3679 23.5477 98.3439 22.9717C97.3359 22.3957 96.5359 21.6197 95.9439 20.6437C95.3519 19.6677 95.0559 18.5717 95.0559 17.3557C95.0559 16.1397 95.3359 15.0437 95.8959 14.0677C96.4719 13.0917 97.2479 12.3157 98.2239 11.7397C99.1999 11.1637 100.288 10.8757 101.488 10.8757C102.688 10.8757 103.752 11.1717 104.68 11.7637C105.608 12.3557 106.336 13.1557 106.864 14.1637C107.408 15.1717 107.68 16.3157 107.68 17.5957V18.4597H98.4159C98.5599 18.9557 98.7919 19.4037 99.1119 19.8037C99.4479 20.2037 99.8559 20.5157 100.336 20.7397C100.832 20.9637 101.36 21.0757 101.92 21.0757C102.48 21.0757 102.992 20.9877 103.456 20.8117C103.936 20.6357 104.344 20.3877 104.68 20.0677L106.84 22.0357C106.072 22.6597 105.28 23.1157 104.464 23.4037C103.664 23.6917 102.76 23.8357 101.752 23.8357ZM98.3679 16.1077H104.44C104.328 15.6117 104.12 15.1797 103.816 14.8117C103.528 14.4277 103.176 14.1317 102.76 13.9237C102.36 13.6997 101.912 13.5877 101.416 13.5877C100.904 13.5877 100.44 13.6917 100.024 13.8997C99.6079 14.1077 99.2559 14.4037 98.9679 14.7877C98.6959 15.1557 98.4959 15.5957 98.3679 16.1077ZM113.608 23.8117C112.712 23.8117 111.92 23.6517 111.232 23.3317C110.544 22.9957 110.008 22.5397 109.624 21.9637C109.24 21.3877 109.048 20.7237 109.048 19.9717C109.048 18.7717 109.496 17.8437 110.392 17.1877C111.304 16.5157 112.552 16.1797 114.136 16.1797C115.224 16.1797 116.248 16.3477 117.208 16.6837V15.7717C117.208 15.0517 116.984 14.5077 116.536 14.1397C116.088 13.7717 115.432 13.5877 114.568 13.5877C114.04 13.5877 113.472 13.6757 112.864 13.8517C112.256 14.0117 111.552 14.2677 110.752 14.6197L109.552 12.1957C110.544 11.7477 111.488 11.4117 112.384 11.1877C113.296 10.9637 114.208 10.8517 115.12 10.8517C116.8 10.8517 118.104 11.2597 119.032 12.0757C119.976 12.8757 120.448 14.0117 120.448 15.4837V23.5957H117.208V22.7077C116.696 23.0917 116.144 23.3717 115.552 23.5477C114.96 23.7237 114.312 23.8117 113.608 23.8117ZM112.168 19.8997C112.168 20.3797 112.376 20.7637 112.792 21.0517C113.208 21.3237 113.76 21.4597 114.448 21.4597C114.992 21.4597 115.496 21.3957 115.96 21.2677C116.424 21.1237 116.84 20.9157 117.208 20.6437V18.8197C116.808 18.6597 116.392 18.5397 115.96 18.4597C115.528 18.3797 115.064 18.3397 114.568 18.3397C113.816 18.3397 113.224 18.4837 112.792 18.7717C112.376 19.0437 112.168 19.4197 112.168 19.8997ZM122.937 23.5957V6.7957L126.225 6.2437V23.5957H122.937ZM134.724 23.7877C133.332 23.7877 132.276 23.4757 131.556 22.8517C130.852 22.2117 130.5 21.2837 130.5 20.0677V13.8277H127.932V11.0917H130.5V7.8997L133.788 7.1557V11.0917H137.364V13.8277H133.788V19.3957C133.788 19.9717 133.916 20.3877 134.172 20.6437C134.428 20.8837 134.876 21.0037 135.516 21.0037C135.836 21.0037 136.124 20.9877 136.38 20.9557C136.652 20.9077 136.948 20.8277 137.268 20.7157V23.4277C136.932 23.5397 136.508 23.6277 135.996 23.6917C135.5 23.7557 135.076 23.7877 134.724 23.7877ZM138.968 23.5957V6.7957L142.256 6.0757V12.1237C143.2 11.2757 144.368 10.8517 145.76 10.8517C146.736 10.8517 147.592 11.0677 148.328 11.4997C149.08 11.9157 149.664 12.4997 150.08 13.2517C150.496 13.9877 150.704 14.8517 150.704 15.8437V23.5957H147.416V16.3237C147.416 15.5077 147.184 14.8677 146.72 14.4037C146.256 13.9237 145.624 13.6837 144.824 13.6837C144.264 13.6837 143.768 13.7957 143.336 14.0197C142.904 14.2277 142.544 14.5317 142.256 14.9317V23.5957H138.968Z" fill="white"/>
<path d="M65.712 45.7497C64.984 45.7497 64.3073 45.6237 63.682 45.3717C63.066 45.1104 62.52 44.751 62.044 44.2937C61.5773 43.827 61.2133 43.2904 60.952 42.6837C60.7 42.0677 60.574 41.405 60.574 40.6957C60.574 39.9864 60.7 39.3284 60.952 38.7217C61.2133 38.1057 61.5773 37.569 62.044 37.1117C62.52 36.645 63.0707 36.2857 63.696 36.0337C64.3213 35.7724 64.9933 35.6417 65.712 35.6417C66.2253 35.6417 66.7247 35.7117 67.21 35.8517C67.7047 35.9824 68.1573 36.1737 68.568 36.4257C68.988 36.6777 69.352 36.981 69.66 37.3357L68.68 38.3437C68.316 37.905 67.8727 37.5737 67.35 37.3497C66.8273 37.1164 66.2813 36.9997 65.712 36.9997C65.1893 36.9997 64.704 37.093 64.256 37.2797C63.8173 37.4664 63.4347 37.7277 63.108 38.0637C62.7813 38.3904 62.5247 38.7777 62.338 39.2257C62.1607 39.6737 62.072 40.1637 62.072 40.6957C62.072 41.2184 62.1607 41.7037 62.338 42.1517C62.5247 42.5997 62.786 42.9917 63.122 43.3277C63.458 43.6637 63.85 43.925 64.298 44.1117C64.746 44.2984 65.2313 44.3917 65.754 44.3917C66.3233 44.3917 66.86 44.2797 67.364 44.0557C67.8773 43.8224 68.3113 43.4957 68.666 43.0757L69.632 44.0557C69.3053 44.401 68.932 44.7044 68.512 44.9657C68.1013 45.2177 67.6533 45.4137 67.168 45.5537C66.692 45.6844 66.2067 45.7497 65.712 45.7497ZM70.0902 45.5957L74.1362 35.7957H75.8722L79.8762 45.5957H78.2802L77.1462 42.7257H72.7642L71.6162 45.5957H70.0902ZM73.2402 41.5077H76.6702L74.9622 37.1957L73.2402 41.5077ZM80.8866 45.5957V35.7957H85.3246C85.9779 35.7957 86.5472 35.917 87.0326 36.1597C87.5272 36.4024 87.9099 36.743 88.1806 37.1817C88.4606 37.611 88.6006 38.115 88.6006 38.6937C88.6006 39.3377 88.4186 39.893 88.0546 40.3597C87.6906 40.8264 87.2006 41.1624 86.5846 41.3677L88.7686 45.5957H87.1446L85.1146 41.5777H82.3566V45.5957H80.8866ZM82.3566 40.3457H85.2126C85.7912 40.3457 86.2532 40.201 86.5986 39.9117C86.9532 39.613 87.1306 39.2117 87.1306 38.7077C87.1306 38.2224 86.9532 37.8304 86.5986 37.5317C86.2532 37.233 85.7912 37.0837 85.2126 37.0837H82.3566V40.3457ZM90.1151 45.5957V35.7957H97.3391V37.0837H91.5851V40.0237H95.3651V41.2697H91.5851V44.3077H97.3951V45.5957H90.1151ZM103.414 45.5957L101.272 35.7957H102.784L104.31 43.2857L106.522 35.7957H107.922L110.134 43.2717L111.674 35.7957H113.116L110.974 45.5957H109.462L107.208 37.8957L104.94 45.5957H103.414ZM114.547 45.5957V35.7957H116.017V45.5957H114.547ZM120.707 45.5957V37.0977H117.263V35.7957H125.621V37.0977H122.177V45.5957H120.707ZM126.851 45.5957V35.7957H128.321V39.9957H133.529V35.7957H134.999V45.5957H133.529V41.3257H128.321V45.5957H126.851ZM139.922 45.5957V35.7957H141.392V44.2937H147.034V45.5957H139.922ZM152.377 45.7497C151.668 45.7497 151.005 45.6237 150.389 45.3717C149.773 45.1104 149.227 44.751 148.751 44.2937C148.284 43.827 147.92 43.2904 147.659 42.6837C147.407 42.0677 147.281 41.405 147.281 40.6957C147.281 39.9864 147.407 39.3284 147.659 38.7217C147.92 38.1057 148.284 37.569 148.751 37.1117C149.227 36.645 149.773 36.2857 150.389 36.0337C151.005 35.7724 151.668 35.6417 152.377 35.6417C153.086 35.6417 153.749 35.7724 154.365 36.0337C154.99 36.2857 155.536 36.645 156.003 37.1117C156.47 37.569 156.834 38.1057 157.095 38.7217C157.356 39.3284 157.487 39.9864 157.487 40.6957C157.487 41.405 157.356 42.0677 157.095 42.6837C156.834 43.2904 156.47 43.827 156.003 44.2937C155.536 44.751 154.99 45.1104 154.365 45.3717C153.749 45.6237 153.086 45.7497 152.377 45.7497ZM152.391 44.3917C152.895 44.3917 153.362 44.2984 153.791 44.1117C154.23 43.925 154.612 43.6684 154.939 43.3417C155.266 43.0057 155.522 42.6137 155.709 42.1657C155.896 41.7084 155.989 41.2184 155.989 40.6957C155.989 40.1637 155.896 39.6737 155.709 39.2257C155.522 38.7777 155.266 38.3904 154.939 38.0637C154.612 37.7277 154.23 37.4664 153.791 37.2797C153.362 37.093 152.895 36.9997 152.391 36.9997C151.878 36.9997 151.402 37.093 150.963 37.2797C150.524 37.4664 150.142 37.7277 149.815 38.0637C149.488 38.3904 149.232 38.7777 149.045 39.2257C148.868 39.6737 148.779 40.159 148.779 40.6817C148.779 41.2137 148.868 41.7084 149.045 42.1657C149.232 42.6137 149.488 43.0057 149.815 43.3417C150.142 43.6684 150.524 43.925 150.963 44.1117C151.402 44.2984 151.878 44.3917 152.391 44.3917ZM161.553 45.5957L157.549 35.7957H159.131L162.449 44.1397L165.823 35.7957H167.335L163.275 45.5957H161.553ZM168.346 45.5957V35.7957H175.57V37.0837H169.816V40.0237H173.596V41.2697H169.816V44.3077H175.626V45.5957H168.346Z" fill="#DD9500"/>
</svg>
