<svg width="26" height="26" viewBox="0 0 26 26" fill="none" xmlns="http://www.w3.org/2000/svg">
<path d="M6.75 3C6.75 2.33696 7.01339 1.70107 7.48223 1.23223C7.95107 0.763392 8.58696 0.5 9.25 0.5H16.75C17.413 0.5 18.0489 0.763392 18.5178 1.23223C18.9866 1.70107 19.25 2.33696 19.25 3V5.5H24.25C24.5815 5.5 24.8995 5.6317 25.1339 5.86612C25.3683 6.10054 25.5 6.41848 25.5 6.75C25.5 7.08152 25.3683 7.39946 25.1339 7.63388C24.8995 7.8683 24.5815 8 24.25 8H22.9137L21.83 23.1775C21.7851 23.8082 21.5029 24.3985 21.0401 24.8295C20.5774 25.2604 19.9686 25.5 19.3363 25.5H6.6625C6.03017 25.5 5.42133 25.2604 4.95861 24.8295C4.49588 24.3985 4.21364 23.8082 4.16875 23.1775L3.0875 8H1.75C1.41848 8 1.10054 7.8683 0.866116 7.63388C0.631696 7.39946 0.5 7.08152 0.5 6.75C0.5 6.41848 0.631696 6.10054 0.866116 5.86612C1.10054 5.6317 1.41848 5.5 1.75 5.5H6.75V3ZM9.25 5.5H16.75V3H9.25V5.5ZM5.5925 8L6.66375 23H19.3375L20.4088 8H5.5925Z" fill="#E42525"/>
</svg>
