<svg width="214" height="60" viewBox="0 0 214 60" fill="none" xmlns="http://www.w3.org/2000/svg">
<path d="M51.3421 8.17891C48.1868 4.72834 43.9791 2.83008 39.4924 2.83008C35.6144 2.83008 31.9428 4.25015 28.9813 6.86389C26.0198 4.25015 22.3483 2.83008 18.4702 2.83008C13.9836 2.83008 9.7759 4.72834 6.62058 8.17891C0.208505 15.1887 0.208505 26.5928 6.62058 33.6026L27.6428 56.5828C27.9869 56.956 28.4724 57.1697 28.9813 57.1697C29.4903 57.1697 29.9757 56.956 30.3199 56.581L51.3421 33.6008C57.7542 26.5928 57.7542 15.1887 51.3421 8.17891ZM48.665 31.1573L28.9813 52.674L9.2959 31.1573C4.11733 25.4969 4.11733 16.2846 9.2959 10.6242C11.7575 7.93257 15.0142 6.45272 18.4702 6.45272C21.9262 6.45272 25.183 7.93257 27.6428 10.6224C28.3293 11.3723 29.6316 11.3723 30.3199 10.6224C32.7797 7.93257 36.0364 6.45272 39.4924 6.45272C42.9484 6.45272 46.207 7.93257 48.6668 10.6224C53.8453 16.2846 53.8453 25.4969 48.665 31.1573Z" fill="#2C3E50"/>
<path d="M43.4717 24.5652H38.9433L34.0528 18.0445C33.676 17.5427 33.0729 17.2729 32.4407 17.3272C31.8158 17.3833 31.2652 17.7601 30.9826 18.3216L25.0487 30.1912L21.3735 25.2898C21.0312 24.8333 20.495 24.5652 19.9245 24.5652H14.4905C13.4907 24.5652 12.6792 25.3767 12.6792 26.3766C12.6792 27.3764 13.4907 28.1879 14.4905 28.1879H19.0188L23.9094 34.7086C24.2535 35.1669 24.7915 35.4332 25.3584 35.4332C25.4128 35.4332 25.4671 35.4314 25.5215 35.4259C26.1464 35.3698 26.697 34.993 26.9796 34.4315L32.9135 22.5619L36.5886 27.4634C36.9292 27.9198 37.4671 28.1879 38.0377 28.1879H43.4717C44.4715 28.1879 45.283 27.3764 45.283 26.3766C45.283 25.3767 44.4715 24.5652 43.4717 24.5652Z" fill="#2C3E50"/>
<path d="M74.2789 27.585V7.29817H83.8137C85.1855 7.29817 86.3834 7.53002 87.4074 7.99371C88.4314 8.45741 89.2332 9.11432 89.8128 9.96443C90.3924 10.7952 90.6823 11.7613 90.6823 12.8625C90.6823 13.7513 90.4504 14.5724 89.9867 15.3259C89.5423 16.0601 88.9337 16.6591 88.1609 17.1228C89.1463 17.5865 89.9287 18.2144 90.5084 19.0065C91.088 19.7987 91.3778 20.6971 91.3778 21.7018C91.3778 22.861 91.0783 23.885 90.4794 24.7738C89.8998 25.6625 89.069 26.3581 87.987 26.8604C86.9244 27.3435 85.6878 27.585 84.2774 27.585H74.2789ZM78.4812 15.5868H83.5529C84.461 15.5868 85.1758 15.3742 85.6975 14.9492C86.2385 14.5048 86.509 13.9155 86.509 13.1813C86.509 12.4471 86.2385 11.8675 85.6975 11.4425C85.1758 10.9981 84.461 10.7759 83.5529 10.7759H78.4812V15.5868ZM78.4812 24.1072H83.9586C84.9247 24.1072 85.6975 23.8754 86.2771 23.4117C86.8567 22.9287 87.1466 22.2911 87.1466 21.4989C87.1466 20.6875 86.8567 20.0499 86.2771 19.5862C85.6975 19.1031 84.9247 18.8616 83.9586 18.8616H78.4812V24.1072ZM94.3167 27.585V7.29817H98.5189V15.4708H107.851V7.29817H112.053V27.585H107.851V19.2674H98.5189V27.585H94.3167ZM122.871 27.8748C121.364 27.8748 119.992 27.527 118.755 26.8315C117.538 26.1359 116.572 25.1988 115.857 24.0203C115.142 22.8417 114.785 21.5182 114.785 20.0499C114.785 18.5815 115.123 17.258 115.799 16.0795C116.495 14.9009 117.432 13.9638 118.61 13.2683C119.789 12.5727 121.103 12.225 122.552 12.225C124.001 12.225 125.286 12.5824 126.406 13.2973C127.527 14.0121 128.406 14.9782 129.044 16.1954C129.7 17.4126 130.029 18.794 130.029 20.3397V21.383H118.842C119.016 21.9819 119.296 22.5229 119.683 23.0059C120.088 23.489 120.581 23.8657 121.161 24.1362C121.76 24.4067 122.397 24.5419 123.073 24.5419C123.75 24.5419 124.368 24.4357 124.928 24.2231C125.508 24.0106 126.001 23.7111 126.406 23.3247L129.015 25.7012C128.087 26.4547 127.131 27.0053 126.145 27.3531C125.179 27.7009 124.088 27.8748 122.871 27.8748ZM118.784 18.5428H126.116C125.981 17.9439 125.73 17.4222 125.363 16.9779C125.015 16.5142 124.59 16.1567 124.088 15.9056C123.605 15.6351 123.064 15.4998 122.465 15.4998C121.847 15.4998 121.286 15.6254 120.784 15.8766C120.282 16.1278 119.857 16.4852 119.509 16.9489C119.18 17.3933 118.939 17.9246 118.784 18.5428ZM137.187 27.8458C136.106 27.8458 135.149 27.6526 134.318 27.2662C133.488 26.8604 132.84 26.3098 132.377 25.6142C131.913 24.9187 131.681 24.1169 131.681 23.2088C131.681 21.7598 132.222 20.6391 133.304 19.847C134.405 19.0355 135.912 18.6298 137.825 18.6298C139.139 18.6298 140.375 18.8327 141.535 19.2384V18.1371C141.535 17.2677 141.264 16.6108 140.723 16.1664C140.182 15.722 139.39 15.4998 138.347 15.4998C137.709 15.4998 137.023 15.6061 136.289 15.8186C135.555 16.0118 134.705 16.321 133.739 16.746L132.29 13.8189C133.488 13.2779 134.627 12.8722 135.709 12.6017C136.811 12.3312 137.912 12.196 139.013 12.196C141.042 12.196 142.617 12.6887 143.737 13.674C144.877 14.6401 145.447 16.0118 145.447 17.7893V27.585H141.535V26.5127C140.916 26.9764 140.25 27.3145 139.535 27.527C138.82 27.7395 138.038 27.8458 137.187 27.8458ZM135.449 23.1219C135.449 23.7015 135.7 24.1652 136.202 24.513C136.704 24.8414 137.371 25.0056 138.202 25.0056C138.859 25.0056 139.467 24.9284 140.028 24.7738C140.588 24.5999 141.09 24.3487 141.535 24.0203V21.8177C141.052 21.6245 140.549 21.4796 140.028 21.383C139.506 21.2864 138.946 21.2381 138.347 21.2381C137.439 21.2381 136.724 21.412 136.202 21.7598C135.7 22.0882 135.449 22.5422 135.449 23.1219ZM148.452 27.585V7.29817L152.422 6.6316V27.585H148.452ZM162.686 27.8168C161.005 27.8168 159.73 27.4401 158.86 26.6865C158.01 25.9137 157.585 24.7931 157.585 23.3247V15.7896H154.484V12.4858H157.585V8.6313L161.556 7.73288V12.4858H165.874V15.7896H161.556V22.5133C161.556 23.2088 161.71 23.7111 162.019 24.0203C162.328 24.3101 162.869 24.455 163.642 24.455C164.029 24.455 164.376 24.4357 164.686 24.397C165.014 24.3391 165.371 24.2425 165.758 24.1072V27.3821C165.352 27.5173 164.84 27.6236 164.222 27.7009C163.623 27.7782 163.111 27.8168 162.686 27.8168ZM167.811 27.585V7.29817L171.781 6.42873V13.732C172.921 12.708 174.331 12.196 176.012 12.196C177.191 12.196 178.224 12.4568 179.113 12.9785C180.021 13.4808 180.726 14.186 181.229 15.0941C181.731 15.9828 181.982 17.0262 181.982 18.2241V27.585H178.012V18.8037C178.012 17.8183 177.732 17.0455 177.171 16.4852C176.611 15.9056 175.848 15.6158 174.882 15.6158C174.206 15.6158 173.607 15.751 173.085 16.0215C172.563 16.2727 172.129 16.6398 171.781 17.1228V27.585H167.811Z" fill="#2C3E50"/>
<path d="M79.3506 55.601C78.4715 55.601 77.6544 55.4489 76.8993 55.1445C76.1555 54.829 75.4961 54.3951 74.9214 53.8428C74.3578 53.2793 73.9183 52.6312 73.6027 51.8987C73.2984 51.1548 73.1463 50.3546 73.1463 49.4981C73.1463 48.6415 73.2984 47.8469 73.6027 47.1144C73.9183 46.3705 74.3578 45.7225 74.9214 45.1702C75.4961 44.6067 76.1611 44.1728 76.9162 43.8685C77.6713 43.5529 78.4828 43.3951 79.3506 43.3951C79.9705 43.3951 80.5735 43.4796 81.1595 43.6487C81.7569 43.8065 82.3035 44.0375 82.7994 44.3418C83.3066 44.6461 83.7461 45.0124 84.118 45.4407L82.9346 46.6579C82.4951 46.1282 81.9597 45.7281 81.3286 45.4576C80.6975 45.1758 80.0381 45.035 79.3506 45.035C78.7195 45.035 78.1334 45.1477 77.5924 45.3731C77.0627 45.5985 76.6006 45.9141 76.2062 46.3198C75.8117 46.7143 75.5018 47.182 75.2764 47.723C75.0622 48.2639 74.9552 48.8556 74.9552 49.4981C74.9552 50.1292 75.0622 50.7153 75.2764 51.2562C75.5018 51.7972 75.8174 52.2706 76.2231 52.6763C76.6288 53.0821 77.1022 53.3976 77.6432 53.623C78.1841 53.8484 78.7702 53.9612 79.4014 53.9612C80.0888 53.9612 80.7369 53.8259 81.3455 53.5554C81.9654 53.2737 82.4895 52.8792 82.9177 52.372L84.0842 53.5554C83.6898 53.9724 83.2389 54.3387 82.7318 54.6543C82.2359 54.9586 81.6949 55.1953 81.1088 55.3643C80.534 55.5221 79.948 55.601 79.3506 55.601ZM84.6375 55.415L89.5232 43.5811H91.6195L96.4545 55.415H94.5273L93.1579 51.9494H87.8665L86.4802 55.415H84.6375ZM88.4413 50.4786H92.5831L90.5207 45.2716L88.4413 50.4786ZM97.6747 55.415V43.5811H103.034C103.823 43.5811 104.51 43.7276 105.096 44.0206C105.694 44.3137 106.156 44.725 106.483 45.2547C106.821 45.7732 106.99 46.3818 106.99 47.0805C106.99 47.8582 106.77 48.5288 106.33 49.0923C105.891 49.6558 105.299 50.0616 104.555 50.3095L107.193 55.415H105.231L102.78 50.5631H99.4497V55.415H97.6747ZM99.4497 49.0754H102.899C103.597 49.0754 104.155 48.9007 104.572 48.5513C105 48.1907 105.215 47.7061 105.215 47.0975C105.215 46.5114 105 46.038 104.572 45.6774C104.155 45.3167 103.597 45.1364 102.899 45.1364H99.4497V49.0754ZM108.819 55.415V43.5811H117.542V45.1364H110.594V48.6866H115.158V50.1912H110.594V53.8597H117.609V55.415H108.819ZM124.877 55.415L122.291 43.5811H124.117L125.959 52.6256L128.631 43.5811H130.321L132.992 52.6087L134.852 43.5811H136.593L134.007 55.415H132.181L129.459 46.1169L126.72 55.415H124.877ZM138.321 55.415V43.5811H140.096V55.415H138.321ZM145.76 55.415V45.1533H141.601V43.5811H151.694V45.1533H147.535V55.415H145.76ZM153.179 55.415V43.5811H154.954V48.6528H161.243V43.5811H163.018V55.415H161.243V50.2588H154.954V55.415H153.179ZM168.962 55.415V43.5811H170.737V53.8428H177.55V55.415H168.962ZM184.003 55.601C183.146 55.601 182.346 55.4489 181.602 55.1445C180.858 54.829 180.199 54.3951 179.624 53.8428C179.061 53.2793 178.621 52.6312 178.306 51.8987C178.001 51.1548 177.849 50.3546 177.849 49.4981C177.849 48.6415 178.001 47.8469 178.306 47.1144C178.621 46.3705 179.061 45.7225 179.624 45.1702C180.199 44.6067 180.858 44.1728 181.602 43.8685C182.346 43.5529 183.146 43.3951 184.003 43.3951C184.859 43.3951 185.66 43.5529 186.403 43.8685C187.158 44.1728 187.818 44.6067 188.381 45.1702C188.945 45.7225 189.384 46.3705 189.7 47.1144C190.016 47.8469 190.173 48.6415 190.173 49.4981C190.173 50.3546 190.016 51.1548 189.7 51.8987C189.384 52.6312 188.945 53.2793 188.381 53.8428C187.818 54.3951 187.158 54.829 186.403 55.1445C185.66 55.4489 184.859 55.601 184.003 55.601ZM184.02 53.9612C184.628 53.9612 185.192 53.8484 185.71 53.623C186.24 53.3976 186.702 53.0877 187.096 52.6932C187.491 52.2875 187.801 51.8141 188.026 51.2732C188.252 50.7209 188.364 50.1292 188.364 49.4981C188.364 48.8556 188.252 48.2639 188.026 47.723C187.801 47.182 187.491 46.7143 187.096 46.3198C186.702 45.9141 186.24 45.5985 185.71 45.3731C185.192 45.1477 184.628 45.035 184.02 45.035C183.4 45.035 182.825 45.1477 182.295 45.3731C181.766 45.5985 181.303 45.9141 180.909 46.3198C180.515 46.7143 180.205 47.182 179.979 47.723C179.765 48.2639 179.658 48.85 179.658 49.4812C179.658 50.1236 179.765 50.7209 179.979 51.2732C180.205 51.8141 180.515 52.2875 180.909 52.6932C181.303 53.0877 181.766 53.3976 182.295 53.623C182.825 53.8484 183.4 53.9612 184.02 53.9612ZM195.083 55.415L190.248 43.5811H192.159L196.165 53.6569L200.24 43.5811H202.065L197.163 55.415H195.083ZM203.286 55.415V43.5811H212.009V45.1364H205.061V48.6866H209.625V50.1912H205.061V53.8597H212.076V55.415H203.286Z" fill="#DD9500"/>
</svg>
