<svg width="20" height="23" viewBox="0 0 20 23" fill="none" xmlns="http://www.w3.org/2000/svg">
<path d="M7.99166 2.35013C8.15352 1.95007 8.43117 1.60746 8.78901 1.36622C9.14686 1.12497 9.56859 0.996094 10.0002 0.996094C10.4317 0.996094 10.8535 1.12497 11.2113 1.36622C11.5691 1.60746 11.8468 1.95007 12.0087 2.35013C13.6106 2.7907 15.0237 3.74498 16.0308 5.06641C17.0379 6.38783 17.5834 8.00333 17.5835 9.66479V14.7532L19.5682 17.7302C19.677 17.8934 19.7395 18.083 19.749 18.2789C19.7586 18.4748 19.7147 18.6696 19.6222 18.8425C19.5297 19.0155 19.3919 19.16 19.2237 19.2608C19.0554 19.3616 18.863 19.4148 18.6668 19.4148H13.7539C13.6235 20.3173 13.1722 21.1426 12.4828 21.7396C11.7934 22.3365 10.9121 22.665 10.0002 22.665C9.08825 22.665 8.20687 22.3365 7.51748 21.7396C6.82809 21.1426 6.37685 20.3173 6.24641 19.4148H1.3335C1.13737 19.4148 0.944907 19.3616 0.776652 19.2608C0.608398 19.16 0.470659 19.0155 0.378132 18.8425C0.285605 18.6696 0.24176 18.4748 0.251276 18.2789C0.260792 18.083 0.32331 17.8934 0.432162 17.7302L2.41683 14.7532V9.66479C2.41683 6.17213 4.77849 3.22979 7.99166 2.35013ZM8.46833 19.4148C8.58021 19.7318 8.78768 20.0064 9.06213 20.2005C9.33658 20.3947 9.6645 20.499 10.0007 20.499C10.3369 20.499 10.6648 20.3947 10.9393 20.2005C11.2137 20.0064 11.4212 19.7318 11.5331 19.4148H8.46724H8.46833ZM10.0002 4.24813C8.56357 4.24813 7.18582 4.81881 6.17 5.83463C5.15418 6.85045 4.58349 8.2282 4.58349 9.66479V15.0815C4.58354 15.2955 4.52021 15.5047 4.40149 15.6827L3.35824 17.2481H16.641L15.5977 15.6827C15.4794 15.5045 15.4165 15.2953 15.4168 15.0815V9.66479C15.4168 8.2282 14.8461 6.85045 13.8303 5.83463C12.8145 4.81881 11.4367 4.24813 10.0002 4.24813Z" fill="#8F9EB5"/>
</svg>
