<svg width="21" height="23" viewBox="0 0 21 23" fill="none" xmlns="http://www.w3.org/2000/svg">
<path d="M8.42818 1.94583C8.59005 1.54577 8.86769 1.20316 9.22554 0.961918C9.58338 0.720677 10.0051 0.591797 10.4367 0.591797C10.8682 0.591797 11.29 0.720677 11.6478 0.961918C12.0057 1.20316 12.2833 1.54577 12.4452 1.94583C14.0472 2.3864 15.4602 3.34068 16.4673 4.66211C17.4745 5.98354 18.0199 7.59904 18.02 9.2605V14.3489L20.0047 17.3259C20.1135 17.4891 20.1761 17.6787 20.1856 17.8746C20.1951 18.0705 20.1512 18.2653 20.0587 18.4382C19.9662 18.6112 19.8284 18.7557 19.6602 18.8565C19.4919 18.9573 19.2995 19.0105 19.1033 19.0105H14.1904C14.06 19.913 13.6087 20.7383 12.9194 21.3353C12.23 21.9322 11.3486 22.2607 10.4367 22.2607C9.52478 22.2607 8.6434 21.9322 7.95401 21.3353C7.26462 20.7383 6.81337 19.913 6.68293 19.0105H1.77002C1.57389 19.0105 1.38143 18.9573 1.21318 18.8565C1.04492 18.7557 0.907183 18.6112 0.814655 18.4382C0.722128 18.2653 0.678284 18.0705 0.687799 17.8746C0.697315 17.6787 0.759834 17.4891 0.868686 17.3259L2.85335 14.3489V9.2605C2.85335 5.76783 5.21502 2.8255 8.42818 1.94583ZM8.90485 19.0105C9.01673 19.3275 9.2242 19.6021 9.49865 19.7962C9.7731 19.9904 10.101 20.0947 10.4372 20.0947C10.7734 20.0947 11.1013 19.9904 11.3758 19.7962C11.6502 19.6021 11.8577 19.3275 11.9696 19.0105H8.90377H8.90485ZM10.4367 3.84383C9.00009 3.84383 7.62234 4.41451 6.60652 5.43034C5.5907 6.44616 5.02002 7.82391 5.02002 9.2605V14.6772C5.02007 14.8912 4.95674 15.1004 4.83802 15.2784L3.79477 16.8438H17.0775L16.0343 15.2784C15.9159 15.1003 15.853 14.891 15.8533 14.6772V9.2605C15.8533 7.82391 15.2827 6.44616 14.2668 5.43034C13.251 4.41451 11.8733 3.84383 10.4367 3.84383Z" fill="white"/>
</svg>
